<?xml version="1.0" standalone="no"?>
<!DOCTYPE svg PUBLIC "-//W3C//DTD SVG 20010904//EN"
 "http://www.w3.org/TR/2001/REC-SVG-20010904/DTD/svg10.dtd">
<svg version="1.0" xmlns="http://www.w3.org/2000/svg"
 width="1366.000000pt" height="1366.000000pt" viewBox="0 0 1366.000000 1366.000000"
 preserveAspectRatio="xMidYMid meet">
<metadata>
Created by potrace 1.11, written by Peter Selinger 2001-2013
</metadata>
<g transform="translate(0.000000,1366.000000) scale(0.100000,-0.100000)"
fill="#000000" stroke="none">
<path d="M0 6831 l0 -3031 750 0 750 0 1 338 c0 316 2 368 14 400 6 16 720 18
730 2 5 -8 11 -7 20 0 10 8 11 18 4 36 -5 14 -9 181 -9 380 l0 354 380 0 379
0 3 368 c2 202 7 373 11 380 6 9 89 12 360 12 194 0 357 -4 363 -8 29 -19 33
-57 35 -377 1 -181 4 -338 6 -350 4 -20 10 -20 376 -20 l372 0 5 -375 5 -375
378 -3 377 -2 0 -380 0 -380 755 0 755 0 0 745 0 745 -380 0 -380 0 0 390 0
390 -370 0 -370 0 0 375 0 376 373 -3 372 -3 3 -367 2 -368 375 0 375 0 0
1885 0 1885 -750 0 -750 0 0 -1515 0 -1515 -390 0 -390 0 0 375 0 375 -380 0
-380 0 0 385 0 385 -365 0 -365 0 0 -380 0 -380 -380 0 -380 0 0 -380 0 -380
-395 0 -395 0 0 1515 0 1515 -47 1 c-27 0 -364 3 -750 6 l-703 5 0 -3031z"/>
<path d="M7600 9110 l0 -750 2280 0 2280 0 0 -1530 0 -1530 -1530 0 -1530 0 0
1140 0 1140 -750 0 -750 0 0 -1890 0 -1890 2650 0 2650 0 0 375 0 375 380 0
380 0 0 2275 0 2275 -375 0 -375 0 0 380 0 380 -2655 0 -2655 0 0 -750z"/>
</g>
</svg>
